<?xml version="1.0" encoding="UTF-8"?>
<svg width="16px" height="16px" viewBox="0 0 16 16" version="1.1" xmlns="http://www.w3.org/2000/svg" xmlns:xlink="http://www.w3.org/1999/xlink">
    <title>9ED24D75-AE0E-4648-B338-5C71B3CCDAEC</title>
    <defs>
        <path d="M3.4121822,11.949873 C3.07067281,12.2629233 3.06355819,12.5830835 3.39083797,12.9103633 C3.71811774,13.237643 4.03827793,13.2305284 4.3513282,12.889019 L8.15060062,9.13243557 L11.9498726,12.889019 C12.2629231,13.2305284 12.5830835,13.237643 12.9103636,12.9103633 C13.2376427,12.5830835 13.2305284,12.2629233 12.8890197,11.949873 L9.13243567,8.15060062 L12.8890197,4.35132864 C13.2305284,4.03827815 13.2376427,3.71811774 12.9103636,3.39083759 C12.5830835,3.06355853 12.2629231,3.07067281 11.9498726,3.41218154 L8.15060062,7.16876556 L4.3513282,3.41218154 C4.03827793,3.07067281 3.71811774,3.06355853 3.39083797,3.39083759 C3.06355819,3.71811774 3.07067281,4.03827815 3.4121822,4.35132864 L7.16876566,8.15060062 L3.4121822,11.949873 Z" id="path-1"></path>
    </defs>
    <g id="add" stroke="none" stroke-width="1" fill="none" fill-rule="evenodd">
        <g id="GP-list---Craft-fees-add-new-Quantity-" transform="translate(-716.000000, -532.000000)">
            <g id="Hover-Modal" transform="translate(688.000000, 304.000000)">
                <g id="Time" transform="translate(20.000000, 176.000000)">
                    <g id="Group-2-Copy" transform="translate(8.000000, 40.000000)">
                        <g id="Group-4" transform="translate(0.000000, 12.000000)">
                            <rect id="transparent-BG" fill-opacity="0.01" fill="#FFFFFF" x="0" y="0" width="16" height="16"></rect>
                            <mask id="mask-2" fill="white">
                                <use xlink:href="#path-1"></use>
                            </mask>
                            <use id="Fill-1" fill="#706E6B" transform="translate(8.150601, 8.150601) rotate(-315.000000) translate(-8.150601, -8.150601) " xlink:href="#path-1"></use>
                        </g>
                    </g>
                </g>
            </g>
        </g>
    </g>
</svg>