<?xml version="1.0" encoding="UTF-8"?>
<svg width="16px" height="16px" viewBox="0 0 16 16" version="1.1" xmlns="http://www.w3.org/2000/svg" xmlns:xlink="http://www.w3.org/1999/xlink">
    <!-- Generator: sketchtool 64 (101010) - https://sketch.com -->
    <title>CA4A19D2-CCA8-4E10-9942-D1257359A871</title>
    <desc>Created with sketchtool.</desc>
    <defs>
        <path d="M11.9125729,7.09124993 L8.76519567,10.1512498 C8.62531224,10.2862497 8.39217319,10.2862497 8.25228976,10.1512498 L5.10491257,7.09124993 C4.96502914,6.95624994 4.96502914,6.73124996 5.10491257,6.59624996 L5.61781848,6.10124999 C5.75770192,5.96625 5.99084097,5.96625 6.1307244,6.10124999 L8.25228976,8.21624987 C8.39217319,8.35124986 8.62531224,8.35124986 8.76519567,8.21624987 L10.886761,6.12374999 C11.0266445,5.98875 11.2597835,5.98875 11.3996669,6.12374999 L11.9125729,6.61874996 C12.0291424,6.75374996 12.0291424,6.95624994 11.9125729,7.09124993 Z" id="path-1"></path>
    </defs>
    <g id="Stule-Guide" stroke="none" stroke-width="1" fill="none" fill-rule="evenodd">
        <g id="Style-Guide-/-Icons" transform="translate(-84.000000, -32.000000)">
            <g id="Icons-/-16-/-Arrow-/--Down" transform="translate(84.000000, 32.000000)">
                <rect id="transparent-BG" fill-opacity="0.01" fill="#FFFFFF" x="0" y="0" width="16" height="16"></rect>
                <mask id="mask-2" fill="white">
                    <use xlink:href="#path-1"></use>
                </mask>
                <use id="arrow-down" fill="#706E6B" transform="translate(8.500000, 8.126250) rotate(-360.000000) translate(-8.500000, -8.126250) " xlink:href="#path-1"></use>
                <rect id="🎨-Color" fill="#706E6B" mask="url(#mask-2)" transform="translate(7.500000, 7.500000) rotate(-270.000000) translate(-7.500000, -7.500000) " x="-8.8817842e-16" y="-2.84217094e-14" width="15" height="15"></rect>
            </g>
        </g>
    </g>
</svg>