<?xml version="1.0" encoding="UTF-8"?>
<svg width="20px" height="20px" viewBox="0 0 20 20" version="1.1" xmlns="http://www.w3.org/2000/svg" xmlns:xlink="http://www.w3.org/1999/xlink">
    <!-- Generator: sketchtool 62 (101010) - https://sketch.com -->
    <title>D59A1107-A4F9-4A16-B71E-B013F08D1608</title>
    <desc>Created with sketchtool.</desc>
    <g id="availability" stroke="none" stroke-width="1" fill="none" fill-rule="evenodd">
        <g id="icon/footer/availability" fill="#706E6B">
            <path d="M10,1.25 C14.8324916,1.25 18.75,5.16750844 18.75,10 C18.75,14.8324916 14.8324916,18.75 10,18.75 C5.16750844,18.75 1.25,14.8324916 1.25,10 C1.25,5.16750844 5.16750844,1.25 10,1.25 Z M10,2.08333333 C5.62774573,2.08333333 2.08333333,5.62774573 2.08333333,10 C2.08333333,14.3722543 5.62774573,17.9166667 10,17.9166667 C14.3722543,17.9166667 17.9166667,14.3722543 17.9166667,10 C17.9166667,5.62774573 14.3722543,2.08333333 10,2.08333333 Z M13.6041101,7.18331207 C13.7595784,7.31624167 13.7930937,7.53882734 13.6935914,7.70948886 L13.6500213,7.77077646 L9.37488617,12.7707766 C9.23510301,12.9342606 8.99807933,12.9616921 8.82628351,12.846274 L8.76523496,12.7962829 L6.37370328,10.431545 C6.21007077,10.2697457 6.2085846,10.0059312 6.37038384,9.84229865 C6.51420539,9.69684752 6.73863163,9.67951203 6.9016529,9.79109218 L6.95963015,9.83897921 L9.03250008,11.8883333 L13.0166457,7.22922325 C13.1661915,7.05432142 13.4292083,7.03376628 13.6041101,7.18331207 Z" id="Combined-Shape"></path>
        </g>
    </g>
</svg>