<?xml version="1.0" encoding="UTF-8"?>
<svg width="20px" height="20px" viewBox="0 0 20 20" version="1.1" xmlns="http://www.w3.org/2000/svg" xmlns:xlink="http://www.w3.org/1999/xlink">
    <!-- Generator: sketchtool 62 (101010) - https://sketch.com -->
    <title>C3627929-1056-4002-AB91-2CB9B8F91C0A</title>
    <desc>Created with sketchtool.</desc>
    <g id="Asset-Artboard-Page" stroke="none" stroke-width="1" fill="none" fill-rule="evenodd">
        <g id="icon/footer/availability-icon/footer/calendar" fill="#2C73E1">
            <path d="M14.1666667,1.66666667 C14.3712166,1.66666667 14.5413403,1.81406263 14.5766203,2.00843697 L14.5833333,2.08333333 L14.583,2.91566667 L17.0833333,2.91641663 C17.9526563,2.91641663 18.6706859,3.58869241 18.7438599,4.43968163 L18.75,4.58308329 L18.75,17.0830833 C18.75,18.0007019 18.000952,18.74975 17.0833333,18.74975 L17.0833333,18.74975 L2.91666667,18.74975 C1.99904802,18.74975 1.25,18.0007019 1.25,17.0830833 L1.25,17.0830833 L1.25,4.58308329 C1.25,3.66546465 1.99904802,2.91641663 2.91666667,2.91641663 L2.91666667,2.91641663 L5.416,2.91566667 L5.41666667,2.08333333 C5.41666667,1.85321469 5.60321469,1.66666667 5.83333333,1.66666667 C6.03788324,1.66666667 6.20800698,1.81406263 6.24328694,2.00843697 L6.25,2.08333333 L6.25,2.91566667 L13.75,2.91566667 L13.75,2.08333333 C13.75,1.85321469 13.936548,1.66666667 14.1666667,1.66666667 Z M17.916,7.91566667 L2.083,7.91566667 L2.08333333,17.0830833 C2.08333333,17.5052815 2.40367111,17.858096 2.81269667,17.909877 L2.91666667,17.9164166 L17.0833333,17.9164166 C17.5407147,17.9164166 17.9166667,17.5404646 17.9166667,17.0830833 L17.9166667,17.0830833 L17.916,7.91566667 Z M13.75,3.74966667 L6.25,3.74966667 L6.25,4.53416666 C6.25,4.7642853 6.06345198,4.95083332 5.83333333,4.95083332 C5.62878343,4.95083332 5.45865969,4.80343735 5.42337972,4.60906302 L5.41666667,4.53416666 L5.416,3.74966667 L2.91666667,3.74974996 C2.49446849,3.74974996 2.14165393,4.07008774 2.08987298,4.4791133 L2.08333333,4.58308329 L2.083,7.08266667 L17.916,7.08266667 L17.9166667,4.58308329 C17.9166667,4.16088512 17.5963289,3.80807056 17.1873033,3.75628961 L17.0833333,3.74974996 L14.583,3.74966667 L14.5833333,4.53416666 C14.5833333,4.7642853 14.3967853,4.95083332 14.1666667,4.95083332 C13.9621168,4.95083332 13.791993,4.80343735 13.7567131,4.60906302 L13.75,4.53416666 L13.75,3.74966667 Z" id="Combined-Shape"></path>
        </g>
    </g>
</svg>