<?xml version="1.0" encoding="UTF-8"?>
<svg width="16px" height="16px" viewBox="0 0 16 16" version="1.1" xmlns="http://www.w3.org/2000/svg" xmlns:xlink="http://www.w3.org/1999/xlink">
    <!-- Generator: sketchtool 64 (101010) - https://sketch.com -->
    <title>1C3E470F-4AF1-495A-9612-40002D1F733D</title>
    <desc>Created with sketchtool.</desc>
    <defs>
        <path d="M10.9296875,9.36562516 L8.39843766,11.915625 C8.28593766,12.028125 8.09843767,12.028125 7.98593768,11.915625 L5.45468783,9.36562516 C5.34218784,9.25312516 5.34218784,9.06562517 5.45468783,8.95312518 L5.86718781,8.54062521 C5.9796878,8.42812521 6.16718779,8.42812521 6.27968778,8.54062521 L7.98593768,10.3031251 C8.09843767,10.4156251 8.28593766,10.4156251 8.39843766,10.3031251 L10.1046876,8.55937521 C10.2171875,8.44687521 10.4046875,8.44687521 10.5171875,8.55937521 L10.9296875,8.97187518 C11.0234375,9.08437517 11.0234375,9.25312516 10.9296875,9.36562516 Z M10.9296875,5.97187536 L8.39843766,8.55937521 C8.28593766,8.6718752 8.09843767,8.6718752 7.98593768,8.55937521 L5.45468783,5.97187536 C5.34218784,5.85937537 5.34218784,5.67187538 5.45468783,5.55937538 L5.86718781,5.14687541 C5.9796878,5.03437542 6.16718779,5.03437542 6.27968778,5.14687541 L7.98593768,6.9093753 C8.09843767,7.0218753 8.28593766,7.0218753 8.39843766,6.9093753 L10.1046876,5.16562541 C10.2171875,5.05312541 10.4046875,5.05312541 10.5171875,5.16562541 L10.9296875,5.57812538 C11.0234375,5.69062538 11.0234375,5.87812536 10.9296875,5.97187536 L10.9296875,5.97187536 Z" id="path-1"></path>
    </defs>
    <g id="Stule-Guide" stroke="none" stroke-width="1" fill="none" fill-rule="evenodd">
        <g id="Style-Guide-/-Icons" transform="translate(-244.000000, -32.000000)">
            <g id="Icons-/-16-/-Arrow-/-Left-2" transform="translate(244.000000, 32.000000)">
                <rect id="transparent-BG" fill-opacity="0.01" fill="#FFFFFF" transform="translate(8.000000, 8.000000) rotate(-180.000000) translate(-8.000000, -8.000000) " x="-3.90798505e-13" y="-9.33475519e-13" width="16" height="16"></rect>
                <mask id="mask-2" fill="white">
                    <use xlink:href="#path-1"></use>
                </mask>
                <use id="double-arrow-left" fill="#706E6B" transform="translate(8.185156, 8.531250) rotate(-270.000000) translate(-8.185156, -8.531250) " xlink:href="#path-1"></use>
                <rect id="🎨-Color" fill="#706E6B" mask="url(#mask-2)" transform="translate(8.000000, 8.000000) rotate(-90.000000) translate(-8.000000, -8.000000) " x="6.75015599e-14" y="-8.29558644e-13" width="16" height="16"></rect>
            </g>
        </g>
    </g>
</svg>