<?xml version="1.0" encoding="UTF-8"?>
<svg width="17px" height="16px" viewBox="0 0 17 16" version="1.1" xmlns="http://www.w3.org/2000/svg" xmlns:xlink="http://www.w3.org/1999/xlink">
    <!-- Generator: sketchtool 62 (101010) - https://sketch.com -->
    <title>D9923E64-DDA8-429A-AE23-B234C1588160</title>
    <desc>Created with sketchtool.</desc>
    <defs>
        <path d="M11.6712496,9.16374969 L8.63374978,12.2237495 C8.49874979,12.3587495 8.2737498,12.3587495 8.13874981,12.2237495 L5.10124999,9.16374969 C4.96625,9.0287497 4.96625,8.80374971 5.10124999,8.66874972 L5.59624996,8.17374975 C5.73124996,8.03874976 5.95624994,8.03874976 6.09124993,8.17374975 L8.13874981,10.2887496 C8.2737498,10.4237496 8.49874979,10.4237496 8.63374978,10.2887496 L10.6812497,8.19624975 C10.8162497,8.06124976 11.0412496,8.06124976 11.1762496,8.19624975 L11.6712496,8.69124972 C11.7837496,8.82624971 11.7837496,9.0287497 11.6712496,9.16374969 Z M11.6712496,5.09124993 L8.63374978,8.19624975 C8.49874979,8.33124974 8.2737498,8.33124974 8.13874981,8.19624975 L5.10124999,5.09124993 C4.96625,4.95624994 4.96625,4.73124996 5.10124999,4.59624996 L5.59624996,4.10124999 C5.73124996,3.96625 5.95624994,3.96625 6.09124993,4.10124999 L8.13874981,6.21624987 C8.2737498,6.35124986 8.49874979,6.35124986 8.63374978,6.21624987 L10.6812497,4.12374999 C10.8162497,3.98875 11.0412496,3.98875 11.1762496,4.12374999 L11.6712496,4.61874996 C11.7837496,4.75374996 11.7837496,4.97874994 11.6712496,5.09124993 L11.6712496,5.09124993 Z" id="path-1"></path>
    </defs>
    <g id="Asset-Artboard-Page" stroke="none" stroke-width="1" fill="none" fill-rule="evenodd">
        <g id="Icons-/-16-/-Arrow-/-Left-2" transform="translate(0.158837, 0.000000)">
            <rect id="transparent-BG" fill-opacity="0.01" fill="#FFFFFF" x="0" y="0" width="16" height="16"></rect>
            <mask id="mask-2" fill="white">
                <use xlink:href="#path-1"></use>
            </mask>
            <use id="double-arrow-left" fill="#706E6B" transform="translate(8.377812, 8.162500) rotate(-270.000000) translate(-8.377812, -8.162500) " xlink:href="#path-1"></use>
        </g>
    </g>
</svg>