<?xml version="1.0" encoding="UTF-8"?>
<svg width="16px" height="16px" viewBox="0 0 16 16" version="1.1" xmlns="http://www.w3.org/2000/svg" xmlns:xlink="http://www.w3.org/1999/xlink">
    <!-- Generator: sketchtool 64 (101010) - https://sketch.com -->
    <title>5CB9EB3E-2268-45D5-9F8B-63A834372A86</title>
    <desc>Created with sketchtool.</desc>
    <defs>
        <path d="M10.5593747,9.30312474 L8.02812482,11.8531246 C7.91562483,11.9656246 7.72812484,11.9656246 7.61562484,11.8531246 L5.08437499,9.30312474 C4.971875,9.19062475 4.971875,9.00312476 5.08437499,8.89062477 L5.49687497,8.47812479 C5.60937496,8.3656248 5.79687495,8.3656248 5.90937495,8.47812479 L7.61562484,10.2406247 C7.72812484,10.3531247 7.91562483,10.3531247 8.02812482,10.2406247 L9.73437472,8.49687479 C9.84687471,8.3843748 10.0343747,8.3843748 10.1468747,8.49687479 L10.5593747,8.90937477 C10.6531247,9.02187476 10.6531247,9.19062475 10.5593747,9.30312474 Z M10.5593747,5.90937495 L8.02812482,8.49687479 C7.91562483,8.60937478 7.72812484,8.60937478 7.61562484,8.49687479 L5.08437499,5.90937495 C4.971875,5.79687495 4.971875,5.60937496 5.08437499,5.49687497 L5.49687497,5.08437499 C5.60937496,4.971875 5.79687495,4.971875 5.90937495,5.08437499 L7.61562484,6.84687489 C7.72812484,6.95937488 7.91562483,6.95937488 8.02812482,6.84687489 L9.73437472,5.10312499 C9.84687471,4.990625 10.0343747,4.990625 10.1468747,5.10312499 L10.5593747,5.51562497 C10.6531247,5.62812496 10.6531247,5.81562495 10.5593747,5.90937495 L10.5593747,5.90937495 Z" id="path-1"></path>
    </defs>
    <g id="Stule-Guide" stroke="none" stroke-width="1" fill="none" fill-rule="evenodd">
        <g id="Style-Guide-/-Icons" transform="translate(-204.000000, -32.000000)">
            <g id="Icons-/-16-/-Arrow-/-Right-2" transform="translate(204.000000, 32.000000)">
                <rect id="transparent-BG" fill-opacity="0.01" fill="#FFFFFF" x="0" y="0" width="16" height="16"></rect>
                <mask id="mask-2" fill="white">
                    <use xlink:href="#path-1"></use>
                </mask>
                <use id="double-arrow-right" fill="#706E6B" transform="translate(7.814844, 8.468750) rotate(-90.000000) translate(-7.814844, -8.468750) " xlink:href="#path-1"></use>
                <rect id="🎨-Color" fill="#706E6B" mask="url(#mask-2)" transform="translate(8.000000, 8.000000) rotate(-270.000000) translate(-8.000000, -8.000000) " x="-1.77635684e-15" y="-2.66453526e-14" width="16" height="16"></rect>
            </g>
        </g>
    </g>
</svg>