<?xml version="1.0" encoding="UTF-8"?>
<svg width="20px" height="20px" viewBox="0 0 20 20" version="1.1" xmlns="http://www.w3.org/2000/svg" xmlns:xlink="http://www.w3.org/1999/xlink">
    <title>AA44F257-BE4A-4E74-99C1-9963EF7BEF3A</title>
    <g id="Gantt-Toolbar" stroke="none" stroke-width="1" fill="none" fill-rule="evenodd">
        <g transform="translate(-1390.000000, -100.000000)" id="GANTT-Toolbar">
            <g transform="translate(34.000000, 94.000000)">
                <g id="Toolbar">
                    <g id="Dates-/-Pagination-/-2" transform="translate(1168.000000, 0.000000)">
                        <g id="Molecule-/-dates-/3">
                            <g id="Next/Previuos">
                                <g id="Button-/-With-Icon-Copy-4" transform="translate(182.000000, 0.000000)">
                                    <g id="double-arrow-right-big" transform="translate(6.000000, 6.000000)">
                                        <rect id="transparent-BG" fill-opacity="0.01" fill="#FFFFFF" x="0" y="0" width="20" height="20"></rect>
                                        <path d="M19.3123133,7.82383958 L14.100208,13.2711477 C13.7999093,13.5762841 13.2994115,13.5762841 12.9991128,13.2711477 L7.70002351,7.82383958 C7.39972481,7.51870321 7.45375137,7.06099865 7.75405006,6.75586228 C8.05434875,6.45072591 8.55484657,6.45072591 8.85514526,6.75586228 L12.9991128,10.9889513 C13.2994115,11.2940877 13.7999093,11.2940877 14.100208,10.9889513 L18.2112181,6.70500622 C18.5115168,6.39986985 19.0120146,6.45072591 19.3123133,6.75586228 C19.5625622,7.06099865 19.5625622,7.51870321 19.3123133,7.82383958 Z" id="Icon" fill="#72716D" transform="translate(13.500000, 10.000000) scale(-1, 1) rotate(90.000000) translate(-13.500000, -10.000000) "></path>
                                        <path d="M12.3123133,7.82383958 L7.10020801,13.2711477 C6.79990932,13.5762841 6.2994115,13.5762841 5.99911281,13.2711477 L0.700023506,7.82383958 C0.399724815,7.51870321 0.453751368,7.06099865 0.754050059,6.75586228 C1.05434875,6.45072591 1.55484657,6.45072591 1.85514526,6.75586228 L5.99911281,10.9889513 C6.2994115,11.2940877 6.79990932,11.2940877 7.10020801,10.9889513 L11.2112181,6.70500622 C11.5115168,6.39986985 12.0120146,6.45072591 12.3123133,6.75586228 C12.5625622,7.06099865 12.5625622,7.51870321 12.3123133,7.82383958 Z" id="Icon-Copy-3" fill="#72716D" transform="translate(6.500000, 10.000000) scale(-1, 1) rotate(90.000000) translate(-6.500000, -10.000000) "></path>
                                    </g>
                                </g>
                            </g>
                        </g>
                    </g>
                </g>
            </g>
        </g>
    </g>
</svg>