<?xml version="1.0" encoding="UTF-8"?>
<svg width="24px" height="21px" viewBox="0 0 24 21" version="1.1" xmlns="http://www.w3.org/2000/svg" xmlns:xlink="http://www.w3.org/1999/xlink">
    <!-- Generator: Sketch 63.1 (92452) - https://sketch.com -->
    <title>FOX_PAY_ICON</title>
    <desc>Created with Sketch.</desc>
    <defs>
        <path d="M11.4336,0.75456 L8.51904,8.15808 L9.38592,8.15808 L10.29408,5.81184 L13.24896,5.81184 L14.16672,8.15808 L15.05472,8.15808 L12.15456,0.75456 L11.4336,0.75456 Z M11.46432,2.7552 C11.6016,2.36928 11.70816,2.01408 11.78112,1.69152 L11.78112,1.69152 C11.90016,2.112 12.01344,2.4672 12.1248,2.7552 L12.1248,2.7552 L12.98112,5.04096 L10.59648,5.04096 L11.46432,2.7552 Z M22.59552,0.78432 L20.62752,4.47072 L18.67584,0.78432 L17.73792,0.78432 L20.19456,5.33856 L20.19456,8.15808 L21.06048,8.15808 L21.06048,5.29824 L23.52288,0.78432 L22.59552,0.78432 Z M0.63072,0.78432 L0.63072,8.15808 L1.488,8.15808 L1.488,5.25792 L2.35584,5.25792 C3.30336,5.25792 4.032,5.05632 4.54176,4.65504 L4.54176,4.65504 C5.05152,4.2528 5.30592,3.67872 5.30592,2.9328 L5.30592,2.9328 C5.30592,1.50048 4.38432,0.78432 2.54208,0.78432 L2.54208,0.78432 L0.63072,0.78432 Z M1.488,1.52544 L2.44704,1.52544 C3.12288,1.52544 3.62016,1.64544 3.93888,1.88352 L3.93888,1.88352 C4.25856,2.1216 4.41792,2.48544 4.41792,2.97312 L4.41792,2.97312 C4.41792,3.5136 4.248,3.90816 3.90912,4.15296 L3.90912,4.15296 C3.56928,4.39776 3.0192,4.5216 2.25888,4.5216 L2.25888,4.5216 L1.488,4.5216 L1.488,1.52544 Z" id="path-1"></path>
        <path d="M1.20288,3.11904 C0.4512,4.93152 0.86688,7.0176 2.25504,8.4048 L2.25504,8.4048 C3.64416,9.79008 5.73024,10.20288 7.5408,9.45024 L7.5408,9.45024 C9.35424,8.69664 10.53216,6.92544 10.5273746,4.9632 L10.5273746,4.9632 C10.52064,2.29344 8.35488,0.13248 5.68608,0.128639415 L5.68608,0.128639415 C5.68416,0.128639415 5.68224,0.128639415 5.67936,0.128639415 L5.67936,0.128639415 C3.72,0.12768 1.9536,1.30752 1.20288,3.11904 L1.20288,3.11904 Z M4.79424,6.92544 L4.79424,2.88576 C4.79424,2.48832 5.11776,2.1648 5.51616,2.1648 L5.51616,2.1648 C5.91456,2.1648 6.23712,2.48832 6.23712,2.88576 L6.23712,2.88576 L6.23712,6.92544 C6.23712,7.32384 5.91456,7.64544 5.51616,7.64544 L5.51616,7.64544 C5.11776,7.64544 4.79424,7.32384 4.79424,6.92544 L4.79424,6.92544 Z" id="path-3"></path>
    </defs>
    <g id="Symbols" stroke="none" stroke-width="1" fill="none" fill-rule="evenodd">
        <g id="icon/footer/ePay" transform="translate(0.000000, -2.000000)">
            <g id="FOX_PAY_ICON" transform="translate(0.000000, 2.000000)">
                <g id="Group-3" transform="translate(0.000000, 12.500000)">
                    <mask id="mask-2" fill="white">
                        <use xlink:href="#path-1"></use>
                    </mask>
                    <g id="Clip-2"></g>
                    <polygon id="Fill-1" fill="#373837" mask="url(#mask-2)" points="-0.81216 9.60096 24.9648 9.60096 24.9648 -0.68832 -0.81216 -0.68832"></polygon>
                </g>
                <g id="Group-6" transform="translate(5.760000, 0.424128)">
                    <mask id="mask-4" fill="white">
                        <use xlink:href="#path-3"></use>
                    </mask>
                    <g id="Clip-5"></g>
                    <polygon id="Fill-4" fill="#373837" mask="url(#mask-4)" points="-0.6096 11.26464 11.97024 11.26464 11.97024 -1.3152 -0.6096 -1.3152"></polygon>
                </g>
                <polygon id="Fill-7" fill="#373837" points="3.344448 0.548928 2.614848 0.548928 0.482688 0.548928 0.482688 10.245888 3.344448 10.245888 3.344448 6.919488 5.834688 6.919488 5.834688 4.570368 3.344448 4.570368 3.344448 2.900928 6.535488 2.900928 6.535488 0.548928"></polygon>
                <polygon id="Fill-8" fill="#373837" points="20.269344 0.4824 18.964704 2.71632 17.698464 0.54864 14.864544 0.54864 17.540064 5.15088 14.602464 10.17648 17.467104 10.17648 18.964704 7.60272 20.498784 10.2456 23.364384 10.2456 20.386464 5.15088 23.102304 0.4824"></polygon>
                <polygon id="Fill-9" fill="#373837" points="0.48288 12 23.36448 12 23.36448 11.5 0.48288 11.5"></polygon>
            </g>
        </g>
    </g>
</svg>