<?xml version="1.0" encoding="UTF-8"?>
<svg width="17px" height="16px" viewBox="0 0 17 16" version="1.1" xmlns="http://www.w3.org/2000/svg" xmlns:xlink="http://www.w3.org/1999/xlink">
    <!-- Generator: sketchtool 62 (101010) - https://sketch.com -->
    <title>D982A22D-3548-48E1-BE8B-B8154F6A93FD</title>
    <desc>Created with sketchtool.</desc>
    <defs>
        <path d="M8,0.75 C8.27614237,0.75 8.5,0.973857625 8.5,1.25 L8.5,1.25 L8.50061211,2.5224767 C11.139025,2.7605325 13.2400315,4.86184385 13.4776139,7.50039328 L14.75,7.5 C15.0261424,7.5 15.25,7.72385763 15.25,8 C15.25,8.27614237 15.0261424,8.5 14.75,8.5 L14.75,8.5 L13.4775233,8.50061211 C13.2394977,11.1386899 11.1386899,13.2394977 8.50061211,13.4775233 L8.5,14.5 C8.5,14.7761424 8.27614237,15 8,15 C7.72385763,15 7.5,14.7761424 7.5,14.5 L7.5,14.5 L7.50039328,13.4776139 C4.86184385,13.2400315 2.7605325,11.139025 2.5224767,8.50061211 L1.25,8.5 C0.973857625,8.5 0.75,8.27614237 0.75,8 C0.75,7.72385763 0.973857625,7.5 1.25,7.5 L1.25,7.5 L2.52238608,7.50039328 C2.75999871,4.86150871 4.86150871,2.75999871 7.50039328,2.52238608 L7.5,1.25 C7.5,0.973857625 7.72385763,0.75 8,0.75 Z M8,3.5 C5.51471863,3.5 3.5,5.51471863 3.5,8 C3.5,10.4852814 5.51471863,12.5 8,12.5 C10.4852814,12.5 12.5,10.4852814 12.5,8 C12.5,5.51471863 10.4852814,3.5 8,3.5 Z M8,4.5 C9.93299662,4.5 11.5,6.06700338 11.5,8 C11.5,9.93299662 9.93299662,11.5 8,11.5 C6.06700338,11.5 4.5,9.93299662 4.5,8 C4.5,6.06700338 6.06700338,4.5 8,4.5 Z M8,5.5 C6.61928813,5.5 5.5,6.61928813 5.5,8 C5.5,9.38071187 6.61928813,10.5 8,10.5 C9.38071187,10.5 10.5,9.38071187 10.5,8 C10.5,6.61928813 9.38071187,5.5 8,5.5 Z" id="path-1"></path>
    </defs>
    <g id="Asset-Artboard-Page" stroke="none" stroke-width="1" fill="none" fill-rule="evenodd">
        <g id="Icons-/-16-/-Target--" transform="translate(0.158837, 0.000000)">
            <rect id="transparent-BG" fill-opacity="0.01" fill="#FFFFFF" x="0" y="0" width="16" height="16"></rect>
            <mask id="mask-2" fill="white">
                <use xlink:href="#path-1"></use>
            </mask>
            <use id="focus" fill="#979797" fill-rule="nonzero" xlink:href="#path-1"></use>
            <rect id="squ" fill="#706E6B" mask="url(#mask-2)" transform="translate(8.000000, 8.000000) rotate(-270.000000) translate(-8.000000, -8.000000) " x="0" y="0" width="16" height="16"></rect>
        </g>
    </g>
</svg>