<?xml version="1.0" encoding="UTF-8"?>
<svg width="17px" height="15px" viewBox="0 0 17 15" version="1.1" xmlns="http://www.w3.org/2000/svg" xmlns:xlink="http://www.w3.org/1999/xlink">
    <title>8A68C88C-3AD6-4977-9411-63BB22F6AAC2@3x</title>
    <defs>
        <path d="M8.56779777,7.26906242 L10.7161031,7.26906242 C10.8601747,7.26906242 10.98517,7.32633793 11.091102,7.44089106 C11.197034,7.5554449 11.25,7.69061549 11.25,7.84640778 C11.25,8.0113644 11.197034,8.15111752 11.091102,8.26567065 C10.98517,8.38022449 10.8601747,8.4375 10.7161031,8.4375 L8.03390084,8.4375 C7.88135514,8.4375 7.75423806,8.38022449 7.65254245,8.26567065 C7.55084683,8.15111752 7.5,8.01594692 7.5,7.86015464 C7.5,7.86015464 7.5,7.85786302 7.5,7.85328121 C7.5,7.84869869 7.5,7.84640778 7.5,7.84640778 L7.5,4.32735099 C7.5,4.17155519 7.55084683,4.03638811 7.65254245,3.92182864 C7.75423806,3.80727621 7.88135514,3.75 8.03390084,3.75 C8.17796599,3.75 8.30296781,3.80727621 8.4088998,3.92182864 C8.51483178,4.03638811 8.56779777,4.17155519 8.56779777,4.32735099 L8.56779777,7.26906242 Z M11.6497889,3.38621241 C11.8736675,3.61994985 12.077558,3.87382928 12.2614604,4.14786308 C12.4453629,4.42189687 12.6012821,4.71204302 12.7292118,5.01832009 C12.8571477,5.32459097 12.957088,5.64698039 13.0290512,5.98549455 C13.0930191,6.31594696 13.125,6.65848394 13.125,7.01311664 C13.125,7.02117653 13.125,7.02520617 13.125,7.02520617 L13.125,7.02520617 C13.125,7.74253083 12.9930726,8.41148688 12.7292118,9.03209348 C12.465351,9.66075997 12.1055474,10.2088201 11.6497889,10.6762901 C11.1940304,11.14376 10.6583196,11.5104766 10.0426443,11.7764509 C9.42696896,12.050485 8.77132367,12.1875 8.07569611,12.1875 L8.07569611,11.1598773 C8.63539871,11.1598773 9.15911664,11.0510709 9.64685607,10.8334558 C10.1345955,10.6158406 10.5623646,10.3196463 10.9301695,9.94486414 C11.2979806,9.57008203 11.5898186,9.13284304 11.8057081,8.63313355 C12.0135962,8.13342468 12.1175402,7.59745405 12.1175402,7.02520617 C12.1175402,7.02520617 12.1175402,7.02520617 12.1175402,7.02520617 C12.1175402,6.45295828 12.0115943,5.91699074 11.7997086,5.41727878 C11.5878228,4.91756682 11.2979806,4.4823476 10.9301695,4.11159016 C10.5703598,3.74083892 10.1445926,3.44666314 9.65285556,3.22904424 C9.16111238,3.01143154 8.63539871,2.90262518 8.07569611,2.90262518 C8.07569611,2.90262518 8.07569611,2.90262518 8.07569611,2.90262518 C7.61993452,2.90262518 7.18816903,2.97516482 6.78038431,3.12023789 C6.36460437,3.26531715 5.98880791,3.46681132 5.65298574,3.72472038 C5.31716296,3.98263563 5.02532128,4.28487688 4.77745211,4.63145031 C4.52958356,4.986083 4.34168533,5.3729466 4.21375314,5.79205966 L4.89738847,5.32056133 C4.93736705,5.29638352 4.98134325,5.27623534 5.02931828,5.26011061 C5.0772927,5.24399207 5.12926473,5.2359328 5.18523499,5.2359328 C5.27318861,5.2359328 5.35314516,5.25608097 5.42510709,5.29638352 C5.49706903,5.33667988 5.55703629,5.38907133 5.60501132,5.4535455 L5.60501132,5.46563441 C5.62899823,5.50593696 5.64898752,5.55026295 5.6649792,5.59862477 C5.68097087,5.64698039 5.68896671,5.69534221 5.68896671,5.74369784 C5.68896671,5.83235601 5.66897742,5.91497283 5.62899823,5.99153591 C5.58901965,6.06810703 5.53704761,6.13056948 5.47308151,6.17892882 L3.79397681,7.32744865 C3.75399823,7.35968759 3.71002203,7.38386664 3.662047,7.39998642 C3.61407258,7.4161062 3.56210055,7.42416609 3.50613029,7.42416609 C3.41817667,7.42416609 3.33822012,7.40200186 3.26625819,7.35767277 C3.19429625,7.31334369 3.13432899,7.25894051 3.08635396,7.19446201 L1.95895527,5.47772951 C1.9349679,5.43742696 1.91497877,5.39310097 1.89898721,5.34473915 C1.88299565,5.29638352 1.875,5.24399207 1.875,5.18757717 C1.875,5.09891899 1.89498914,5.01832009 1.93496803,4.94578046 C1.97494688,4.87324083 2.02691867,4.81279629 2.09088489,4.76443447 C2.13086378,4.74025666 2.17483991,4.72010848 2.22281452,4.70398994 C2.27078918,4.68786521 2.32276097,4.67980593 2.37873141,4.67980593 C2.46668497,4.67980593 2.54664127,4.6999603 2.61860382,4.74025666 C2.69056576,4.78055302 2.75053301,4.83294447 2.79850744,4.89742483 L2.79850744,4.90951374 L3.23027722,5.55026295 C3.38219693,5.0183139 3.61407135,4.52667359 3.92590662,4.07532344 C4.23774188,3.6239733 4.60554188,3.23509179 5.02931828,2.90867273 C5.45309407,2.58224748 5.92084052,2.32635014 6.43256992,2.14097452 C6.95229516,1.96365817 7.49999816,1.875 8.07569611,1.875 C8.41950921,1.875 8.75932469,1.90724328 9.0951487,1.97171745 C9.42297749,2.04425708 9.7388073,2.14500416 10.0426443,2.27396488 C10.3464874,2.40291941 10.6303301,2.56411103 10.894191,2.75754592 C11.1660471,2.94292773 11.4179089,3.15247498 11.6497889,3.38621241 Z" id="path-1"></path>
    </defs>
    <g id="history" stroke="none" stroke-width="1" fill="none" fill-rule="evenodd">
        <g id="GP-list---history-log-V02" transform="translate(-1446.000000, -430.000000)">
            <g id="List-Container" transform="translate(16.000000, 178.000000)">
                <g id="Group-5" transform="translate(25.829232, 72.000000)">
                    <g id="Table" transform="translate(-316.000000, -0.000000)">
                        <g id="Group-6" transform="translate(0.170768, 7.000000)">
                            <g id="List-Table-/-Row-Copy-3" transform="translate(0.000000, 160.000000)">
                                <g id="Group" transform="translate(220.000000, 0.000000)">
                                    <g id="History-icon" transform="translate(1499.000000, 10.000000)">
                                        <g id="Icons-/-Arrow-/-Left-1" transform="translate(2.000000, 3.000000)">
                                            <rect id="transparent-BG" fill-opacity="0.01" fill="#FFFFFF" x="0" y="0" width="15" height="15"></rect>
                                            <mask id="mask-2" fill="white">
                                                <use xlink:href="#path-1"></use>
                                            </mask>
                                            <use id="Fill-1" fill="#706E6B" xlink:href="#path-1"></use>
                                            <polygon id="🎨-Color" fill="#2C73E1" mask="url(#mask-2)" transform="translate(7.500000, 7.500000) translate(-7.500000, -7.500000) " points="-3.9776291e-15 8.8817842e-16 15 8.8817842e-16 15 15 -3.9776291e-15 15"></polygon>
                                        </g>
                                    </g>
                                </g>
                            </g>
                        </g>
                    </g>
                </g>
            </g>
        </g>
    </g>
</svg>