<?xml version="1.0" encoding="UTF-8"?>
<svg width="16px" height="16px" viewBox="0 0 16 16" version="1.1" xmlns="http://www.w3.org/2000/svg" xmlns:xlink="http://www.w3.org/1999/xlink">
    <!-- Generator: sketchtool 64 (101010) - https://sketch.com -->
    <title>8C1E5351-AAA7-47F1-804E-141F00DBA2E7</title>
    <desc>Created with sketchtool.</desc>
    <defs>
        <filter x="-17.9%" y="-21.2%" width="135.7%" height="142.4%" filterUnits="objectBoundingBox" id="filter-1">
            <feOffset dx="0" dy="2" in="SourceAlpha" result="shadowOffsetOuter1"></feOffset>
            <feGaussianBlur stdDeviation="8" in="shadowOffsetOuter1" result="shadowBlurOuter1"></feGaussianBlur>
            <feComposite in="shadowBlurOuter1" in2="SourceAlpha" operator="out" result="shadowBlurOuter1"></feComposite>
            <feColorMatrix values="0 0 0 0 0.11372549   0 0 0 0 0.364705882   0 0 0 0 0.733333333  0 0 0 0.24 0" type="matrix" in="shadowBlurOuter1" result="shadowMatrixOuter1"></feColorMatrix>
            <feMerge>
                <feMergeNode in="shadowMatrixOuter1"></feMergeNode>
                <feMergeNode in="SourceGraphic"></feMergeNode>
            </feMerge>
        </filter>
        <path d="M13.089552,2 L2.91044802,2 C2.36318185,2 1.90796182,2.192704 1.54477617,2.578128 C1.18159022,2.963544 1,3.437496 1,4 L1,12 C1,12.5729192 1.18159022,13.0494776 1.54477617,13.4296875 C1.90796182,13.8098978 2.36318185,14 2.91044802,14 L13.089552,14 C13.6368189,14 14.0920405,13.8098978 14.4552243,13.4296875 C14.8184081,13.0494776 15,12.5729192 15,12 L15,4 C15,3.437496 14.8184081,2.963544 14.4552243,2.578128 C14.0920405,2.192704 13.6368189,2 13.089552,2 Z M2.9738058,3 L13.0122085,3 C13.5626825,3 14.0089299,3.44624736 14.0089299,3.99672138 L14.0089299,3.99672138 L14.0089299,3.99672138 L8.55380015,7.63104665 C8.21834306,7.8545354 7.78150189,7.85476961 7.44580536,7.63164069 L1.97708442,3.99672138 L1.97708442,3.99672138 C1.97708442,3.44624736 2.42333178,3 2.9738058,3 Z M13.3281202,13 L2.67187502,13 C2.46354068,13 2.29947992,12.9353031 2.17968795,12.8059067 C2.05989518,12.6765111 2,12.4992978 2,12.2742615 L2,5 L7.4452998,8.63019987 C7.78119922,8.85413281 8.21880078,8.85413281 8.5547002,8.63019987 L14,5 L14,5 L14,12.2742615 C14,12.4992978 13.940104,12.6765111 13.820312,12.8059067 C13.7005201,12.9353031 13.5364561,13 13.3281202,13 Z" id="path-2"></path>
    </defs>
    <g id="mail" stroke="none" stroke-width="1" fill="none" fill-rule="evenodd">
        <g transform="translate(-178.000000, -517.000000)">
            <g id="GAME-PLAN-BG" fill="#FAFAF9">
                <g id="GANTT-BG">
                    <polygon id="bg" points="5.32907052e-14 78 1920 78 1920 838 0 838"></polygon>
                </g>
            </g>
            <g id="Gantt" transform="translate(0.000000, 226.000000)">
                <g id="Table" transform="translate(155.000000, 0.000000)">
                    <g id="Components-/-Schedule-/-Table-/-12-hour" stroke="#F4F0ED" stroke-dasharray="4,6" stroke-linecap="round" stroke-linejoin="round">
                        <g id="Schedule-/-Table-/-Column" transform="translate(0.000000, 60.000000)">
                            <line x1="27.0506329" y1="0.485915493" x2="27.0506329" y2="551.514085" id="Line"></line>
                        </g>
                    </g>
                    <g id="Schedule-/-Table-/-ROWS" transform="translate(1.000000, 126.000000)" fill="#F0EFEC" opacity="0.347175">
                        <rect id="row" x="0" y="160" width="1764" height="40"></rect>
                    </g>
                </g>
            </g>
            <g id="Hover-Modal-Copy" transform="translate(161.000000, 434.000000)">
                <g id="Shapes-/-Fill-/-Soft" filter="url(#filter-1)" transform="translate(1.000000, 0.000000)" fill="#FFFFFF">
                    <rect id="Shape" x="0" y="0" width="196" height="165" rx="8"></rect>
                </g>
                <g id="Group-6" transform="translate(17.000000, 82.000000)">
                    <g id="Icons-/-16-/-Flag" transform="translate(0.000000, 1.000000)">
                        <rect id="transparent-BG" fill-opacity="0.01" fill="#FFFFFF" x="0" y="0" width="16" height="16"></rect>
                        <mask id="mask-3" fill="white">
                            <use xlink:href="#path-2"></use>
                        </mask>
                        <use id="Fill-1" fill="#000000" xlink:href="#path-2"></use>
                        <rect id="🎨-Color" fill="#706E6B" mask="url(#mask-3)" transform="translate(8.000000, 8.000000) rotate(0) translate(-8.000000, -8.000000) " x="0" y="0" width="16" height="16"></rect>
                    </g>
                </g>
            </g>
        </g>
    </g>
</svg>