<?xml version="1.0" encoding="UTF-8"?>
<svg width="15px" height="16px" viewBox="0 0 15 16" version="1.1" xmlns="http://www.w3.org/2000/svg" xmlns:xlink="http://www.w3.org/1999/xlink">
    <!-- Generator: sketchtool 64 (101010) - https://sketch.com -->
    <title>4D2391BA-CC7A-4B1A-9D15-6960AE1723CB</title>
    <desc>Created with sketchtool.</desc>
    <g id="Asperii_FOX-Sport-project_L&amp;F" stroke="none" stroke-width="1" fill="none" fill-rule="evenodd">
        <g id="GLOBAL-Gantt---Print-2-weeks-schedule---open" transform="translate(-558.000000, -186.000000)" fill="#706E6B" fill-rule="nonzero" stroke="#706E6B" stroke-width="0.4">
            <g id="GANTT-Toolbar" transform="translate(33.000000, 178.000000)">
                <g id="Toolbar">
                    <g id="Button-/-With-Icon-/-Left-Copy" transform="translate(509.000000, 0.000000)">
                        <g id="Group" transform="translate(16.000000, 8.000000)">
                            <g id="print" transform="translate(1.000000, 1.000000)">
                                <g id="Group">
                                    <path d="M11.9079096,2.68926554 L10.1638418,2.68926554 L10.1638418,1.06779661 C10.1638418,0.478531073 9.68531073,0 9.0960452,0 L4.66666667,0 C4.07740113,0 3.59887006,0.478531073 3.59887006,1.06779661 L3.59887006,2.68926554 L1.85480226,2.68926554 C0.830508475,2.68926554 0,3.54350282 0,4.56779661 L0,8.60169492 C0,9.6259887 0.830508475,10.480226 1.85480226,10.480226 L2.8079096,10.480226 L2.8079096,12.9322034 C2.8079096,13.5214689 3.28644068,14 3.87570621,14 L9.88700565,14 C10.4762712,14 10.9548023,13.5214689 10.9548023,12.9322034 L10.9548023,10.480226 L11.9079096,10.480226 C12.9322034,10.480226 13.7627119,9.6259887 13.7627119,8.60169492 L13.7627119,4.56779661 C13.7627119,3.54350282 12.9322034,2.68926554 11.9079096,2.68926554 Z M4.15254237,1.06779661 C4.15254237,0.783050847 4.3819209,0.553672316 4.66666667,0.553672316 L9.0960452,0.553672316 C9.38079096,0.553672316 9.61016949,0.783050847 9.61016949,1.06779661 L9.61016949,2.68926554 L4.15254237,2.68926554 L4.15254237,1.06779661 Z M10.4011299,12.9322034 C10.4011299,13.2169492 10.1717514,13.4463277 9.88700565,13.4463277 L3.87570621,13.4463277 C3.59096045,13.4463277 3.36158192,13.2169492 3.36158192,12.9322034 L3.36158192,7.75141243 L10.4011299,7.75141243 L10.4011299,12.9322034 Z M11.9079096,9.92655367 L10.9548023,9.92655367 L10.9548023,7.45875706 C10.9548023,7.30451977 10.8322034,7.19774011 10.6779661,7.19774011 L3.08474576,7.19774011 C2.93050847,7.19774011 2.8079096,7.30847458 2.8079096,7.45875706 L2.8079096,9.92655367 L1.85480226,9.92655367 C1.13502825,9.92655367 0.553672316,9.32146893 0.553672316,8.60169492 L0.553672316,4.56779661 C0.553672316,3.8480226 1.13502825,3.24293785 1.85480226,3.24293785 L11.9039548,3.24293785 C12.6237288,3.24293785 13.2050847,3.8480226 13.2050847,4.56779661 L13.2050847,8.60169492 L13.2090395,8.60169492 C13.2090395,9.32146893 12.6276836,9.92655367 11.9079096,9.92655367 Z" id="Shape"></path>
                                    <rect id="Rectangle" x="2.53107345" y="4.82485876" width="1" height="1"></rect>
                                </g>
                            </g>
                        </g>
                    </g>
                </g>
            </g>
        </g>
    </g>
</svg>