<?xml version="1.0" encoding="UTF-8"?>
<svg width="20px" height="20px" viewBox="0 0 20 20" version="1.1" xmlns="http://www.w3.org/2000/svg" xmlns:xlink="http://www.w3.org/1999/xlink">
    <!-- Generator: sketchtool 62 (101010) - https://sketch.com -->
    <title>416589FE-8FF9-4FB7-970C-4892E4DFF4CC</title>
    <desc>Created with sketchtool.</desc>
    <g id="Asset-Artboard-Page" stroke="none" stroke-width="1" fill="none" fill-rule="evenodd">
        <g id="icon/footer/availability-icon/footer/schedule" fill="#706E6B">
            <path d="M18.75,16.6664166 C18.75,17.5840353 18.000952,18.3330833 17.0833333,18.3330833 L17.0833333,18.3330833 L2.91666667,18.3330833 C1.99904802,18.3330833 1.25,17.5840353 1.25,16.6664166 L1.25,16.6664166 L1.25,4.16641663 C1.25,3.24879798 1.99904802,2.49974996 2.91666667,2.49974996 L2.91666667,2.49974996 L5.416,2.499 L5.41666667,1.66666667 C5.41666667,1.43654802 5.60321469,1.25 5.83333333,1.25 C6.03788324,1.25 6.20800698,1.39739597 6.24328694,1.59177031 L6.25,1.66666667 L6.25,2.499 L9.583,2.499 L9.58333333,1.66666667 C9.58333333,1.43654802 9.76988135,1.25 10,1.25 C10.2045499,1.25 10.3746736,1.39739597 10.4099536,1.59177031 L10.4166667,1.66666667 L10.416,2.499 L13.75,2.499 L13.75,1.66666667 C13.75,1.43654802 13.936548,1.25 14.1666667,1.25 C14.3712166,1.25 14.5413403,1.39739597 14.5766203,1.59177031 L14.5833333,1.66666667 L14.583,2.499 L17.0833333,2.49974996 C17.9526563,2.49974996 18.6706859,3.17202574 18.7438599,4.02301496 L18.75,4.16641663 Z M17.916,6.666 L2.083,6.666 L2.08333333,16.6664166 C2.08333333,17.0886148 2.40367111,17.4414294 2.81269667,17.4932103 L2.91666667,17.49975 L17.0833333,17.49975 C17.5407147,17.49975 17.9166667,17.123798 17.9166667,16.6664166 L17.9166667,16.6664166 L17.916,6.666 Z M6.0625,12.9164998 C6.40610411,12.9164998 6.66666667,13.2060137 6.66666667,13.5414998 L6.66666667,15.6248331 C6.66666667,15.9603192 6.40610411,16.2498331 6.0625,16.2498331 L3.9375,16.2498331 C3.59389589,16.2498331 3.33333333,15.9603192 3.33333333,15.6248331 L3.33333333,13.5414998 C3.33333333,13.2060137 3.59389589,12.9164998 3.9375,12.9164998 L6.0625,12.9164998 Z M11.0625,12.9164998 C11.4061041,12.9164998 11.6666667,13.2060137 11.6666667,13.5414998 L11.6666667,15.6248331 C11.6666667,15.9603192 11.4061041,16.2498331 11.0625,16.2498331 L8.9375,16.2498331 C8.59389589,16.2498331 8.33333333,15.9603192 8.33333333,15.6248331 L8.33333333,13.5414998 C8.33333333,13.2060137 8.59389589,12.9164998 8.9375,12.9164998 L11.0625,12.9164998 Z M16.0625,12.9164998 C16.4061041,12.9164998 16.6666667,13.2060137 16.6666667,13.5414998 L16.6666667,15.6248331 C16.6666667,15.9603192 16.4061041,16.2498331 16.0625,16.2498331 L13.9375,16.2498331 C13.5938959,16.2498331 13.3333333,15.9603192 13.3333333,15.6248331 L13.3333333,13.5414998 C13.3333333,13.2060137 13.5938959,12.9164998 13.9375,12.9164998 L16.0625,12.9164998 Z M5.83333333,13.7504998 L4.16666667,13.7504998 L4.16666667,15.4171665 L5.83333333,15.4171665 L5.83333333,13.7504998 Z M10.8333333,13.7504998 L9.16666667,13.7504998 L9.16666667,15.4171665 L10.8333333,15.4171665 L10.8333333,13.7504998 Z M15.8333333,13.7504998 L14.1666667,13.7504998 L14.1666667,15.4171665 L15.8333333,15.4171665 L15.8333333,13.7504998 Z M6.0625,7.91650017 C6.40610411,7.91650017 6.66666667,8.20601412 6.66666667,8.54150017 L6.66666667,10.6248335 C6.66666667,10.9603196 6.40610411,11.2498335 6.0625,11.2498335 L3.9375,11.2498335 C3.59389589,11.2498335 3.33333333,10.9603196 3.33333333,10.6248335 L3.33333333,8.54150017 C3.33333333,8.20601412 3.59389589,7.91650017 3.9375,7.91650017 L6.0625,7.91650017 Z M11.0625,7.91650017 C11.4061041,7.91650017 11.6666667,8.20601412 11.6666667,8.54150017 L11.6666667,10.6248335 C11.6666667,10.9603196 11.4061041,11.2498335 11.0625,11.2498335 L8.9375,11.2498335 C8.59389589,11.2498335 8.33333333,10.9603196 8.33333333,10.6248335 L8.33333333,8.54150017 C8.33333333,8.20601412 8.59389589,7.91650017 8.9375,7.91650017 L11.0625,7.91650017 Z M16.0625,7.91650017 C16.4061041,7.91650017 16.6666667,8.20601412 16.6666667,8.54150017 L16.6666667,10.6248335 C16.6666667,10.9603196 16.4061041,11.2498335 16.0625,11.2498335 L13.9375,11.2498335 C13.5938959,11.2498335 13.3333333,10.9603196 13.3333333,10.6248335 L13.3333333,8.54150017 C13.3333333,8.20601412 13.5938959,7.91650017 13.9375,7.91650017 L16.0625,7.91650017 Z M5.83333333,8.75050018 L4.16666667,8.75050018 L4.16666667,10.4171668 L5.83333333,10.4171668 L5.83333333,8.75050018 Z M10.8333333,8.75050018 L9.16666667,8.75050018 L9.16666667,10.4171668 L10.8333333,10.4171668 L10.8333333,8.75050018 Z M15.8333333,8.75050018 L14.1666667,8.75050018 L14.1666667,10.4171668 L15.8333333,10.4171668 L15.8333333,8.75050018 Z M5.416,3.333 L2.91666667,3.33308329 C2.45928531,3.33308329 2.08333333,3.70903527 2.08333333,4.16641663 L2.08333333,4.16641663 L2.083,5.833 L17.916,5.833 L17.9166667,4.16641663 C17.9166667,3.74421845 17.5963289,3.39140389 17.1873033,3.33962294 L17.0833333,3.33308329 L14.583,3.333 L14.5833333,4.11749999 L14.578,4.166 L14.9754167,4.16649997 C15.2055353,4.16649997 15.3920833,4.35304799 15.3920833,4.58316664 C15.3920833,4.78771655 15.2446874,4.95784028 15.050313,4.99312025 L14.9754167,4.99983331 L13.30875,4.99983331 C13.0786313,4.99983331 12.8920833,4.81328528 12.8920833,4.58316664 C12.8920833,4.37861673 13.0394793,4.208493 13.2338536,4.17321303 L13.30875,4.16649997 L13.754,4.166 L13.75,4.11749999 L13.75,3.333 L10.416,3.333 L10.4166667,4.11749999 L10.411,4.166 L10.80875,4.16649997 C11.0388686,4.16649997 11.2254167,4.35304799 11.2254167,4.58316664 C11.2254167,4.78771655 11.0780207,4.95784028 10.8836464,4.99312025 L10.80875,4.99983331 L9.14208333,4.99983331 C8.91196468,4.99983331 8.72541666,4.81328528 8.72541666,4.58316664 C8.72541666,4.37861673 8.87281263,4.208493 9.06718697,4.17321303 L9.14208333,4.16649997 L9.588,4.166 L9.58333333,4.11749999 L9.583,3.333 L6.25,3.333 L6.25,4.11749999 L6.245,4.166 L6.66666667,4.16649997 C6.89678531,4.16649997 7.08333333,4.35304799 7.08333333,4.58316664 C7.08333333,4.78771655 6.93593737,4.95784028 6.74156303,4.99312025 L6.66666667,4.99983331 L5,4.99983331 C4.76988135,4.99983331 4.58333333,4.81328528 4.58333333,4.58316664 C4.58333333,4.37861673 4.7307293,4.208493 4.92510364,4.17321303 L5,4.16649997 L5.421,4.166 L5.41666667,4.11749999 L5.416,3.333 Z" id="Combined-Shape"></path>
        </g>
    </g>
</svg>