<?xml version="1.0" encoding="UTF-8"?>
<svg width="14px" height="14px" viewBox="0 0 14 14" version="1.1" xmlns="http://www.w3.org/2000/svg" xmlns:xlink="http://www.w3.org/1999/xlink">
    <title>2D8C0794-06D6-4A62-9829-5141DAC91FA6</title>
    <g id="Recurrence-modal" stroke="none" stroke-width="1" fill="none" fill-rule="evenodd">
        <g id="selected-shift" transform="translate(-622.000000, -282.000000)" fill="#FFFFFF">
            <g id="Group-14" transform="translate(522.000000, 273.000000)">
                <g id="Icon" transform="translate(100.000000, 9.000000)">
                    <path d="M11,0 C12.6568542,-7.48448398e-16 14,1.34314575 14,3 L14,11 C14,12.6568542 12.6568542,14 11,14 L3,14 C1.34314575,14 -2.41183085e-16,12.6568542 0,11 L0,3 C-6.46995335e-16,1.34314575 1.34314575,-1.39730022e-16 3,0 L11,0 Z M10.8859994,4.13481213 C10.5462042,3.89793213 10.0787167,3.98136133 9.84183667,4.32115648 L9.84183667,4.32115648 L6.70354343,8.82106566 L4.20077974,6.93916416 L4.08576641,6.86780164 C3.7679606,6.7082902 3.37187174,6.7935945 3.15059637,7.08787492 C2.90166158,7.41894039 2.96824165,7.8891235 3.29930712,8.13805829 L3.29930712,8.13805829 L6.42431202,10.4878124 L6.54228927,10.5606713 C6.86830804,10.7225582 7.27437152,10.6270182 7.49030186,10.3172745 L7.49030186,10.3172745 L11.0723437,5.17897485 L11.1395281,5.06147195 C11.2875189,4.73814059 11.1880395,4.34537213 10.8859994,4.13481213 Z" id="Combined-Shape"></path>
                </g>
            </g>
        </g>
    </g>
</svg>