<?xml version="1.0" encoding="UTF-8"?>
<svg width="17px" height="16px" viewBox="0 0 17 16" version="1.1" xmlns="http://www.w3.org/2000/svg" xmlns:xlink="http://www.w3.org/1999/xlink">
    <!-- Generator: sketchtool 62 (101010) - https://sketch.com -->
    <title>1EADF7E3-FD13-4F90-8536-DD2A3F1F2FB8</title>
    <desc>Created with sketchtool.</desc>
    <g id="Asset-Artboard-Page" stroke="none" stroke-width="1" fill="none" fill-rule="evenodd">
        <g id="Icons-/-Arrow-/-Left-1-Icons-/-16-/-Send" transform="translate(0.672123, 0.000000)" fill="#FDFDFD">
            <path d="M9.57275032,14.3625328 L7.32298121,9.30114499 L13.5086419,3.1140847 L9.57275032,14.3625328 Z M1.63765156,6.42695544 L12.8844325,2.49055042 L6.69877179,8.67692095 L1.63765156,6.42695544 Z M15,1.40971168 L14.9993118,1.40971168 C14.9965589,1.37108567 14.9889886,1.3331494 14.9766007,1.29452338 C14.9339315,1.19519934 14.9070912,1.15381432 14.8761216,1.12277556 C14.845152,1.09242654 14.8038592,1.06483653 14.7460493,1.03862602 C14.6669048,1.01034625 14.6297413,1.00344875 14.5891367,1.00068975 C14.5753724,1 14.5609199,1 14.5478439,1 C14.4872811,1 14.451494,1.0068975 14.419148,1.01862326 L0.295635723,5.96137398 C0.123582411,6.02138226 0.00796258516,6.17795558 0.000392239417,6.36004966 C-0.00717810632,6.54214374 0.0953656678,6.70768382 0.261913274,6.7814871 L6.46202643,9.53772934 L9.21763228,15.7378949 C9.28920646,15.897917 9.44680729,16 9.62092525,16 C9.8211953,15.9924127 9.97810792,15.8765347 10.0386707,15.7040971 L14.9814182,1.58076976 C14.9924297,1.5483515 14.9972471,1.50972548 14.9993118,1.46834046 C14.9979354,1.4483377 14.9986236,1.42971444 15,1.40971168 L15,1.40971168 Z" id="Fill-1"></path>
        </g>
    </g>
</svg>