<?xml version="1.0" encoding="UTF-8"?>
<svg width="24px" height="24px" viewBox="0 0 24 24" version="1.1" xmlns="http://www.w3.org/2000/svg" xmlns:xlink="http://www.w3.org/1999/xlink">
    <defs>
        <circle id="path-1" cx="8" cy="8" r="8"></circle>
        <filter x="-43.8%" y="-31.2%" width="187.5%" height="187.5%" filterUnits="objectBoundingBox" id="filter-2">
            <feOffset dx="0" dy="2" in="SourceAlpha" result="shadowOffsetOuter1"></feOffset>
            <feGaussianBlur stdDeviation="2" in="shadowOffsetOuter1" result="shadowBlurOuter1"></feGaussianBlur>
            <feColorMatrix values="0 0 0 0 0.712947237   0 0 0 0 0.712947237   0 0 0 0 0.712947237  0 0 0 0.253414554 0" type="matrix" in="shadowBlurOuter1"></feColorMatrix>
        </filter>
    </defs>
    <g id="unconfirmed" stroke="none" stroke-width="1" fill="none" fill-rule="evenodd">
        <g id="Events_Status_Icons_Colors" transform="translate(-960.000000, -452.000000)">
            <g id="Icons-/-16-/-Unconfirmed" transform="translate(964.000000, 454.000000)">
                <rect id="transparent-BG" fill-opacity="0.01" fill="#FFFFFF" x="0" y="0" width="16" height="16"></rect>
                <g id="Group">
                    <g id="Oval">
                        <use fill="black" fill-opacity="1" filter="url(#filter-2)" xlink:href="#path-1"></use>
                        <use fill="#FFFFFF" fill-rule="evenodd" xlink:href="#path-1"></use>
                    </g>
                    <circle id="Oval" fill="#A3A3A3" cx="8" cy="8" r="7"></circle>
                </g>
                <path d="M7.99995491,3 C7.44770872,3 7,3.52603237 7,4.1751021 L7,8.82510967 C7,9.47396763 7.44770872,10 7.99995491,10 C8.5522011,10 9,9.47396763 9,8.82510967 L9,4.1751021 C9.00018018,3.52603237 8.55238134,3 7.99995491,3" id="Fill-1" fill="#FFFFFF"></path>
                <path d="M7.99995494,11 C7.44770874,11 7,11.4477289 7,12 C7,12.5522711 7.44770874,13 7.99995494,13 C8.55220114,13 9,12.5522711 9,12 C9,11.4477289 8.55238138,11 7.99995494,11" id="Fill-4" fill="#FFFFFF"></path>
            </g>
        </g>
    </g>
</svg>