<?xml version="1.0" encoding="UTF-8"?>
<svg width="18px" height="23px" viewBox="0 0 18 23" version="1.1" xmlns="http://www.w3.org/2000/svg" xmlns:xlink="http://www.w3.org/1999/xlink">
    <!-- Generator: Sketch 63.1 (92452) - https://sketch.com -->
    <title>Workday_ICON</title>
    <desc>Created with Sketch.</desc>
    <defs>
        <polygon id="path-1" points="0 0.8793 18 0.8793 18 8.5283 0 8.5283"></polygon>
        <polygon id="path-3" points="0.00282711569 0.9052 17.9671511 0.9052 17.9671511 13 0.00282711569 13"></polygon>
    </defs>
    <g id="Symbols" stroke="none" stroke-width="1" fill="none" fill-rule="evenodd">
        <g id="icon/footer/workday" transform="translate(-3.000000, -1.000000)">
            <g id="Workday_ICON" transform="translate(3.000000, 0.000000)">
                <g id="Group-3" transform="translate(0.000000, 0.120700)">
                    <mask id="mask-2" fill="white">
                        <use xlink:href="#path-1"></use>
                    </mask>
                    <g id="Clip-2"></g>
                    <path d="M17.9141,7.0653 C16.4031,3.2493 12.9891,0.8793 9.0011,0.8793 C5.0101,0.8793 1.5931,3.2493 0.0851,7.0653 C-0.0529,7.4103 -0.0219,7.7553 0.1691,8.0373 C0.3751,8.3413 0.7521,8.5283 1.1551,8.5283 C1.6631,8.5283 2.0951,8.2373 2.2791,7.7733 C3.4071,4.9213 5.9821,3.1523 9.0011,3.1523 C12.0181,3.1523 14.5941,4.9213 15.7211,7.7733 C15.9061,8.2373 16.3351,8.5283 16.8441,8.5283 C17.2471,8.5283 17.6251,8.3413 17.8301,8.0373 C18.0211,7.7553 18.0541,7.4103 17.9141,7.0653" id="Fill-1" fill="#A2A2A2" mask="url(#mask-2)"></path>
                </g>
                <g id="Group-6" transform="translate(0.000000, 10.120700)">
                    <mask id="mask-4" fill="white">
                        <use xlink:href="#path-3"></use>
                    </mask>
                    <g id="Clip-5"></g>
                    <path d="M14.9717,12.5482 C14.8817,12.8252 14.6717,13.0002 14.2857,13.0002 L12.1107,13.0002 C11.7547,13.0002 11.5757,12.9002 11.4877,12.5482 L9.4307,4.8722 C9.2217,4.0942 9.1347,3.1922 9.0117,2.2862 C8.9257,3.1922 8.8057,4.1182 8.5967,4.8722 L6.5437,12.5482 C6.4817,12.8252 6.2457,13.0002 5.8597,13.0002 L3.6537,13.0002 C3.2967,13.0002 3.1167,12.9002 3.0277,12.5482 L0.0217,1.5102 C-0.0673,1.1342 0.1697,0.9052 0.4967,0.9052 L1.8967,0.9052 C2.2837,0.9052 2.4927,1.0332 2.5817,1.4092 L4.4887,9.2872 C4.6957,10.1912 4.7567,11.1212 4.8457,11.9722 C4.9947,11.1442 5.1137,10.1662 5.3497,9.3132 L7.4667,1.3842 C7.5547,1.0582 7.8247,0.9052 8.1807,0.9052 L9.9077,0.9052 C10.2647,0.9052 10.5637,1.0832 10.6527,1.4092 L12.7957,9.3132 C13.0347,10.1662 13.1557,11.1212 13.2737,11.9722 C13.3907,11.1442 13.5127,10.1662 13.6917,9.3132 L15.4477,1.3842 C15.5077,1.0582 15.8017,0.9052 16.1607,0.9052 L17.4717,0.9052 C17.7987,0.9052 18.0387,1.1072 17.9477,1.4852 L14.9717,12.5482 Z" id="Fill-4" fill="#4C4C4C" mask="url(#mask-4)"></path>
                </g>
            </g>
        </g>
    </g>
</svg>