<?xml version="1.0" encoding="UTF-8"?>
<svg width="24px" height="24px" viewBox="0 0 24 24" version="1.1" xmlns="http://www.w3.org/2000/svg" xmlns:xlink="http://www.w3.org/1999/xlink">
    <!-- Generator: sketchtool 63.1 (101010) - https://sketch.com -->
    <title>4B905AC0-5D90-472C-8FB4-3DE44FEEE3AA</title>
    <desc>Created with sketchtool.</desc>
    <defs>
        <circle cx="8" cy="8" r="8"></circle>
        <filter x="-43.8%" y="-31.2%" width="187.5%" height="187.5%" filterUnits="objectBoundingBox">
            <feOffset dx="0" dy="2" in="SourceAlpha" result="shadowOffsetOuter1"></feOffset>
            <feGaussianBlur stdDeviation="2" in="shadowOffsetOuter1" result="shadowBlurOuter1"></feGaussianBlur>
            <feColorMatrix values="0 0 0 0 0.712947237   0 0 0 0 0.712947237   0 0 0 0 0.712947237  0 0 0 0.253414554 0" type="matrix" in="shadowBlurOuter1"></feColorMatrix>
        </filter>
    </defs>
    <g id="schedule-request-svg" stroke="none" stroke-width="1" fill="none" fill-rule="evenodd">
        <path d="M5,6.48480845 C5,6.10832044 5.12199878,5.72688436 5.366,5.34048877 C5.61000122,4.95409318 5.96599766,4.63408317 6.434,4.38044914 C6.90200234,4.12681511 7.44799688,4 8.072,4 C8.6520029,4 9.16399778,4.10600951 9.608,4.3180317 C10.0520022,4.5300539 10.3949988,4.81836013 10.637,5.18295905 C10.8790012,5.54755797 11,5.94385519 11,6.37186262 C11,6.70872031 10.9310007,7.00396174 10.793,7.25759577 C10.6549993,7.5112298 10.4910009,7.73018402 10.301,7.91446499 L10.1011633,8.10323379 C9.90381685,8.28621935 9.62943033,8.53340097 9.278,8.84478203 C9.14199932,8.96763602 9.03300041,9.07562701 8.951,9.16875826 C8.86899959,9.2618895 8.8080002,9.3470934 8.768,9.42437252 C8.7279998,9.50165164 8.69700011,9.5789296 8.675,9.65620872 L8.60693758,9.92872735 C8.59731258,9.96996746 8.58700005,10.0148611 8.576,10.0634082 C8.5,10.4755635 8.262002,10.681638 7.862,10.681638 C7.65399896,10.681638 7.47900071,10.6142675 7.337,10.4795244 C7.19499929,10.3447814 7.124,10.1446513 7.124,9.87912814 C7.124,9.54623347 7.17599948,9.25792724 7.28,9.01420079 C7.38400052,8.77047434 7.52199914,8.55647384 7.694,8.37219287 C7.82300065,8.23398214 7.9857495,8.07626771 8.1822495,7.89904681 L8.77412012,7.3747027 C8.84243993,7.31208728 8.89939977,7.25819045 8.945,7.21301189 C9.05900057,7.10006549 9.15499961,6.97424112 9.233,6.83553501 C9.31100039,6.6968289 9.35,6.54623595 9.35,6.38375165 C9.35,6.06670911 9.23100119,5.79920849 8.993,5.58124174 C8.75499881,5.363275 8.44800188,5.25429326 8.072,5.25429326 C7.6319978,5.25429326 7.30800104,5.36426574 7.1,5.584214 C6.93359917,5.76017261 6.78768013,6.00270704 6.66224018,6.31182227 L6.572,6.55614267 C6.43599932,7.00396525 6.1780019,7.22787318 5.798,7.22787318 C5.57399888,7.22787318 5.38500077,7.14960448 5.231,6.99306473 C5.07699923,6.83652498 5,6.66710791 5,6.48480845 Z M7.928,13 C7.68399878,13 7.47100091,12.9217313 7.289,12.7651915 C7.10699909,12.6086518 7.016,12.3896976 7.016,12.1083223 C7.016,11.8586513 7.10399912,11.6486138 7.28,11.4782034 C7.45600088,11.3077931 7.67199872,11.2225892 7.928,11.2225892 C8.18000126,11.2225892 8.39199914,11.3077931 8.564,11.4782034 C8.73600086,11.6486138 8.822,11.8586513 8.822,12.1083223 C8.822,12.3857345 8.7320009,12.603698 8.552,12.7622193 C8.3719991,12.9207406 8.16400118,13 7.928,13 Z" fill="#000000" fill-rule="nonzero"></path>
    </g>
</svg>