<?xml version="1.0" encoding="UTF-8"?>
<svg width="24px" height="24px" viewBox="0 0 24 24" version="1.1" xmlns="http://www.w3.org/2000/svg" xmlns:xlink="http://www.w3.org/1999/xlink">
    <!-- Generator: sketchtool 63.1 (101010) - https://sketch.com -->
    <title>6B542132-CD94-4F5A-8431-0AE8544AAF2B</title>
    <desc>Created with sketchtool.</desc>
    <defs>
        <circle cx="8" cy="8" r="8"></circle>
        <filter x="-43.8%" y="-31.2%" width="187.5%" height="187.5%" filterUnits="objectBoundingBox">
            <feOffset dx="0" dy="2" in="SourceAlpha" result="shadowOffsetOuter1"></feOffset>
            <feGaussianBlur stdDeviation="2" in="shadowOffsetOuter1" result="shadowBlurOuter1"></feGaussianBlur>
            <feColorMatrix values="0 0 0 0 0.712947237   0 0 0 0 0.712947237   0 0 0 0 0.712947237  0 0 0 0.253414554 0" type="matrix" in="shadowBlurOuter1"></feColorMatrix>
        </filter>
    </defs>
    <g id="tech-book-sent-svg" stroke="none" stroke-width="1" fill="none" fill-rule="evenodd">
        <g transform="translate(4.000000, 4.000000)" fill="#FFFFFF" fill-rule="nonzero">
            <path d="M0.936128718,0.0433392925 L0.710764397,0.0433392925 C0.320710764,0.0433392925 1.53972097e-16,0.364050057 1.53972097e-16,0.754103689 C1.53972097e-16,1.14415732 0.312042906,1.47353594 0.710764397,1.47353594 L0.936128718,1.47353594 C1.32618235,1.47353594 1.64689311,1.15282518 1.64689311,0.762771548 C1.64689311,0.372717915 1.32618235,0.0433392925 0.936128718,0.0433392925 Z"></path>
            <path d="M0.936128718,3.44980768 L0.710764397,3.44980768 C0.320710764,3.44980768 1.53972097e-16,3.77051845 1.53972097e-16,4.16057208 C1.53972097e-16,4.55062571 0.320710764,4.87133648 0.710764397,4.87133648 L0.936128718,4.87133648 C1.32618235,4.87133648 1.64689311,4.55062571 1.64689311,4.16057208 C1.64689311,3.77051845 1.32618235,3.44980768 0.936128718,3.44980768 Z"></path>
            <path d="M0.936128718,6.84760821 L0.710764397,6.84760821 C0.320710764,6.84760821 1.53972097e-16,7.16831898 1.53972097e-16,7.55837261 C1.53972097e-16,7.94842624 0.320710764,8.26913701 0.710764397,8.26913701 L0.936128718,8.26913701 C1.32618235,8.26913701 1.64689311,7.94842624 1.64689311,7.55837261 C1.64689311,7.16831898 1.32618235,6.84760821 0.936128718,6.84760821 Z"></path>
            <path d="M3.3197898,1.47353594 L6.91695108,1.47353594 C7.30700471,1.47353594 7.62771548,1.15282518 7.62771548,0.762771548 C7.62771548,0.372717915 7.30700471,0.052007151 6.91695108,0.052007151 L3.3197898,0.052007151 C2.92973617,0.052007151 2.60902541,0.372717915 2.60902541,0.762771548 C2.60902541,1.15282518 2.92973617,1.47353594 3.3197898,1.47353594 Z"></path>
            <path d="M6.91695108,3.44980768 L3.3197898,3.44980768 C2.92973617,3.44980768 2.60902541,3.77051845 2.60902541,4.16057208 C2.60902541,4.55062571 2.92973617,4.87133648 3.3197898,4.87133648 L6.91695108,4.87133648 C7.30700471,4.87133648 7.62771548,4.55062571 7.62771548,4.16057208 C7.62771548,3.77051845 7.31567257,3.44980768 6.91695108,3.44980768 Z"></path>
            <path d="M6.91695108,6.84760821 L3.3197898,6.84760821 C2.92973617,6.84760821 2.60902541,7.16831898 2.60902541,7.55837261 C2.60902541,7.94842624 2.92973617,8.26913701 3.3197898,8.26913701 L6.91695108,8.26913701 C7.30700471,8.26913701 7.62771548,7.94842624 7.62771548,7.55837261 C7.62771548,7.16831898 7.31567257,6.84760821 6.91695108,6.84760821 Z"></path>
        </g>
    </g>
</svg>